<svg xmlns="http://www.w3.org/2000/svg" xmlns:xlink="http://www.w3.org/1999/xlink" version="1.1" width="330.5263232920636" height="290" enable-background="new 0 0 480 290" xml:space="preserve" style=""><rect id="backgroundrect" width="100%" height="100%" x="0" y="0" fill="none" stroke="none" class="" style=""/>


<g class="currentLayer" style=""><title>Layer 1</title><g id="surface4" class="">
	<text transform="matrix(1,0,0,1,74.4541,284.5029) " fill="#000000" font-family="'ArialMT'" font-size="76.2774" id="svg_19" y="2.1052629947662354" x="-77.36841386556625">BILET.BG</text>
</g>
	<path fill="#000000" d="M56.10458613443376,104.30726299476623 c7.776,-21.87 20.845,-39.539 39.205,-53.013 c18.407,-13.479 39.789,-20.392 64.15,-20.75 c24.356,0.3570000000000001 45.743,7.271 64.15,20.75 c18.408,13.474 31.501,31.143 39.283,53.013 h1.066 c-3.355,-27.102 -14.67,-49.43 -33.942,-66.974 C210.79158613443377,19.790262994766234 187.27858613443374,10.714262994766235 159.45958613443375,10.105262994766235 c-27.762,0.6080000000000002 -51.283,9.685 -70.556,27.229 c-19.225,17.543 -30.511,39.873 -33.865,66.974 H56.10458613443376 " id="svg_1" class=""/>
	<path fill="#1E3160" d="M183.10658613443377,205.52426299476625 H135.89158613443374 v-37.221 h47.214 V205.52426299476625 " id="svg_2" class=""/>
	<path fill="#0556A3" d="M183.10658613443377,162.20226299476624 H135.89158613443374 v-27.92 h47.214 V162.20226299476624 " id="svg_3" class=""/>
	<path fill="#0A7EC2" d="M183.10658613443377,128.25726299476622 H135.89158613443374 v-20.136 h47.214 V128.25726299476622 " id="svg_4" class=""/>
	<path fill="#1DA3DD" d="M183.10658613443377,102.01926299476624 H135.89158613443374 V87.14526299476624 h47.214 V102.01926299476624 " id="svg_5" class=""/>
	<path fill="#57BCEB" d="M183.10658613443377,81.04326299476624 H135.89158613443374 V69.90526299476623 h47.214 V81.04326299476624 " id="svg_6" class=""/>
	<path fill="#B6D5F0" d="M183.10658613443377,63.72526299476623 H135.89158613443374 v-8.158 h47.214 V63.72526299476623 " id="svg_7" class=""/>
	<path fill="#1E3160" d="M129.93858613443373,205.52426299476625 h-47.215 v-37.221 h47.215 V205.52426299476625 " id="svg_8" class=""/>
	<path fill="#0556A3" d="M129.93858613443373,162.20226299476624 h-47.215 v-27.92 h47.215 V162.20226299476624 " id="svg_9" class=""/>
	<path fill="#0A7EC2" d="M129.93858613443373,128.25726299476622 h-47.215 v-20.136 h47.215 V128.25726299476622 " id="svg_10" class=""/>
	<path fill="#1DA3DD" d="M129.93858613443373,102.01926299476624 h-47.215 V87.14526299476624 h47.215 V102.01926299476624 " id="svg_11" class=""/>
	<path fill="#1E3160" d="M236.88158613443375,205.52426299476625 h-47.215 v-37.221 h47.215 V205.52426299476625 " id="svg_12" class=""/>
	<path fill="#0556A3" d="M236.88158613443375,162.20226299476624 h-47.215 v-27.92 h47.215 V162.20226299476624 " id="svg_13" class=""/>
	<path fill="#0A7EC2" d="M236.88158613443375,128.25726299476622 h-47.215 v-20.136 h47.215 V128.25726299476622 " id="svg_14" class=""/>
	<path fill="#1DA3DD" d="M236.88158613443375,102.01926299476624 h-47.215 V87.14526299476624 h47.215 V102.01926299476624 " id="svg_15" class=""/>
	<path fill="#57BCEB" d="M236.88158613443375,81.04326299476624 h-47.215 V69.90526299476623 h47.215 V81.04326299476624 " id="svg_16" class=""/>
	<path fill="#000000" d="M77.15858613443373,107.88926299476624 h-2.063 c-13.886,0.3560000000000001 -25.428,5.136 -34.629,14.343 c-9.207,9.2 -13.986,20.744 -14.343,34.628 c0.3570000000000001,13.83 5.136,25.351 14.343,34.551 c9.201,9.207 20.745,13.984 34.629,14.344 h2.063 V107.88926299476624 " id="svg_17" class=""/>
	<path fill="#000000" d="M243.82358613443375,107.88926299476624 h2.134 c13.832,0.3560000000000001 25.35,5.136 34.55,14.343 c9.207,9.2 13.988,20.744 14.343,34.628 c-0.3540000000000001,13.83 -5.136,25.351 -14.343,34.551 c-9.2,9.207 -20.718,13.984 -34.55,14.344 h-2.134 V107.88926299476624 " id="svg_18" class=""/>
</g></svg>