<svg xmlns="http://www.w3.org/2000/svg" width="107" height="48" viewBox="0 0 107 48">
  <g id="eventim" transform="translate(-7319.625 127.396)">
    <path id="Path_34549" data-name="Path 34549" d="M0,0H107V48H0Z" transform="translate(7319.625 -127.396)" fill="#fff"/>
    <g id="eventim-2" data-name="eventim" transform="translate(7328.965 -118.003)">
      <path id="Path_34505" data-name="Path 34505" d="M.7,53.467a5.791,5.791,0,0,1,2.009-2.439,5.255,5.255,0,0,1,3.035-.892,4.845,4.845,0,0,1,4.071,1.9A7.963,7.963,0,0,1,11.289,57v.906H3.215a3.667,3.667,0,0,0,.906,2.261,2.826,2.826,0,0,0,2.208.88,3.691,3.691,0,0,0,1.5-.334A3.705,3.705,0,0,0,9.127,59.8l1.466,1.922a5.635,5.635,0,0,1-2.064,1.423,6.664,6.664,0,0,1-2.542.481,5.847,5.847,0,0,1-3.141-.839A5.573,5.573,0,0,1,.74,60.412,8.671,8.671,0,0,1,.7,53.467Zm3.167.159a4.071,4.071,0,0,0-.654,2.1H8.194a4.15,4.15,0,0,0-.639-2.1,2.058,2.058,0,0,0-1.865-.9,2.033,2.033,0,0,0-1.821.9Z" transform="translate(0.006 -38.09)" fill="#202867"/>
      <path id="Path_34506" data-name="Path 34506" d="M44.75,51.47h3.407l2.581,9.019,2.61-9.019h3.407L52.469,64.333H49.035Z" transform="translate(-33.995 -39.104)" fill="#202867"/>
      <path id="Path_34507" data-name="Path 34507" d="M93.412,53.467a5.81,5.81,0,0,1,2.007-2.439,5.255,5.255,0,0,1,3.035-.892,4.88,4.88,0,0,1,4.085,1.9A7.823,7.823,0,0,1,104,57v.906H95.928a3.665,3.665,0,0,0,.9,2.261,2.838,2.838,0,0,0,2.211.88,3.708,3.708,0,0,0,1.5-.334,3.751,3.751,0,0,0,1.29-.918l1.463,1.922a5.606,5.606,0,0,1-2.062,1.423,6.68,6.68,0,0,1-2.542.481,5.839,5.839,0,0,1-3.141-.839,5.541,5.541,0,0,1-2.1-2.381,8.641,8.641,0,0,1-.041-6.938Zm3.167.159a4.047,4.047,0,0,0-.651,2.1H100.9a4.128,4.128,0,0,0-.639-2.1,2.054,2.054,0,0,0-1.862-.9,2,2,0,0,0-1.824.9Z" transform="translate(-70.425 -38.09)" fill="#202867"/>
      <path id="Path_34508" data-name="Path 34508" d="M150.884,54.867q0-1.889-1.682-1.891a2.146,2.146,0,0,0-1.346.466,4.135,4.135,0,0,0-.983,1.132v8.764h-3.2V50.475h3.2v1.682a4.645,4.645,0,0,1,1.584-1.411,4.366,4.366,0,0,1,2.2-.586,3.324,3.324,0,0,1,2.581.932,3.7,3.7,0,0,1,.848,2.576v9.67h-3.2Z" transform="translate(-109.144 -38.109)" fill="#202867"/>
      <path id="Path_34509" data-name="Path 34509" d="M191.99,52.688a3.6,3.6,0,0,1-.8-2.557V43.163H189.51v-2.8h1.682V36.85h3.194v3.513h2.129v2.795h-2.129v6.224a1.73,1.73,0,0,0,.24.985.8.8,0,0,0,.694.346,1.512,1.512,0,0,0,.557-.106,1,1,0,0,0,.4-.264l.666,2.449a3.594,3.594,0,0,1-2.475.745A3.309,3.309,0,0,1,191.99,52.688Z" transform="translate(-143.969 -27.997)" fill="#202867"/>
      <path id="Path_34510" data-name="Path 34510" d="M222.441,30.84a1.824,1.824,0,0,1-.572-1.358,1.91,1.91,0,0,1,3.275-1.37,1.92,1.92,0,1,1-2.7,2.727Zm-.252,2.449h3.194V46.152h-3.194Z" transform="translate(-168.552 -20.923)" fill="#202867"/>
      <path id="Path_34511" data-name="Path 34511" d="M256.873,54.672q0-1.7-1.463-1.7a1.971,1.971,0,0,0-1.276.481,3.726,3.726,0,0,0-.935,1.11v8.764h-3.191V54.672q0-1.7-1.466-1.7a2,2,0,0,0-1.264.481,3.663,3.663,0,0,0-.944,1.117v8.757H243.14V50.46h3.194v1.682a4,4,0,0,1,1.442-1.37,4.085,4.085,0,0,1,2.163-.627,3.467,3.467,0,0,1,2.059.567,2.74,2.74,0,0,1,1.077,1.665,4.208,4.208,0,0,1,1.545-1.572,4.124,4.124,0,0,1,2.208-.666,3.287,3.287,0,0,1,2.4.839,3.447,3.447,0,0,1,.853,2.569v9.776h-3.2Z" transform="translate(-184.711 -38.094)" fill="#202867"/>
      <g id="_35_11" data-name="35,11" transform="translate(73.181 0)">
        <path id="Path_34512" data-name="Path 34512" d="M309.963,8.877h0c1.485,1.49,1.533,3.821,1.533,5.436h.37c0-1.615.048-3.946,1.533-5.436h0c1.49-1.485,3.821-1.533,5.433-1.533V6.976c-1.612,0-3.943-.046-5.433-1.531h0c-1.485-1.49-1.533-3.823-1.533-5.436h-.37c0,1.612-.048,3.943-1.533,5.433h0c-1.49,1.485-3.821,1.533-5.433,1.533v.372C306.142,7.346,308.473,7.395,309.963,8.877Z" transform="translate(-304.53 -0.01)" fill="#ffcc40"/>
      </g>
    </g>
  </g>
</svg>
