<svg id="facebookwhite" xmlns="http://www.w3.org/2000/svg" width="26.371" height="26.371" viewBox="0 0 26.371 26.371">
  <g id="Group_9417" data-name="Group 9417" transform="translate(0 0)">
    <path id="Path_33547" data-name="Path 33547" d="M13.186,0A13.186,13.186,0,1,1,3.862,3.862,13.137,13.137,0,0,1,13.186,0m8.6,4.592a12.171,12.171,0,1,0,3.556,8.593,12.147,12.147,0,0,0-3.556-8.593" transform="translate(0)" fill="#fff"/>
    <path id="Path_33548" data-name="Path 33548" d="M41.854,28.3V27.215a.566.566,0,0,1,.592-.642h1.511V24.265H41.876a2.617,2.617,0,0,0-2.833,2.818V28.3H37.7v2.694h1.358v6.732h2.694V30.989h1.993l.088-1.059.161-1.635Z" transform="translate(-27.661 -17.804)" fill="#fff" fill-rule="evenodd"/>
  </g>
</svg>
