<svg xmlns="http://www.w3.org/2000/svg" width="25.139" height="25.139" viewBox="0 0 25.139 25.139">
  <g id="facebook" transform="translate(49.518 49.518)">
    <g id="Group_10105" data-name="Group 10105" transform="translate(-49.518 -49.518)">
      <path id="Path_34546" data-name="Path 34546" d="M12.57,0A12.57,12.57,0,1,1,3.682,3.682,12.523,12.523,0,0,1,12.57,0m8.2,4.378a11.6,11.6,0,1,0,3.389,8.192,11.58,11.58,0,0,0-3.389-8.192" transform="translate(0)"/>
      <path id="Path_34547" data-name="Path 34547" d="M41.66,28.107v-1.03a.54.54,0,0,1,.564-.612h1.441v-2.2H41.681a2.494,2.494,0,0,0-2.7,2.687v1.155H37.7v2.568h1.295v6.417h2.568V30.675h1.9l.084-1.009.153-1.559Z" transform="translate(-28.13 -18.106)" fill-rule="evenodd"/>
    </g>
  </g>
</svg>
