<svg xmlns="http://www.w3.org/2000/svg" width="143.308" height="33.539" viewBox="0 0 143.308 33.539">
  <g id="stars" transform="translate(-899.346 -946.644)">
    <path id="iconmonstr-star-3" d="M9.021.587l2.757,5.689,6.263.865-4.558,4.381L14.6,17.746,9.021,14.764,3.445,17.746l1.113-6.224L0,7.141l6.263-.865Z" transform="translate(899.346 954.247)" fill="#f5c02b"/>
    <path id="iconmonstr-star-3-2" data-name="iconmonstr-star-3" d="M12.67.587l3.873,7.991,8.8,1.215-6.4,6.154L20.5,24.688,12.67,20.5,4.839,24.688,6.4,15.947,0,9.793,8.8,8.578Z" transform="translate(922.474 950.775)" fill="#f5c02b"/>
    <path id="iconmonstr-star-3-3" data-name="iconmonstr-star-3" d="M17.632.587l5.389,11.12L35.264,13.4l-8.91,8.563,2.175,12.165L17.632,28.3l-10.9,5.829L8.91,21.961,0,13.4l12.242-1.691Z" transform="translate(953.368 946.057)" fill="#f5c02b"/>
    <path id="iconmonstr-star-3-4" data-name="iconmonstr-star-3" d="M12.67.587l3.873,7.991,8.8,1.215-6.4,6.154L20.5,24.688,12.67,20.5,4.839,24.688,6.4,15.947,0,9.793,8.8,8.578Z" transform="translate(994.185 950.775)" fill="#f5c02b"/>
    <path id="iconmonstr-star-3-5" data-name="iconmonstr-star-3" d="M9.021.587l2.757,5.689,6.263.865-4.558,4.381L14.6,17.746,9.021,14.764,3.445,17.746l1.113-6.224L0,7.141l6.263-.865Z" transform="translate(1024.613 954.247)" fill="#f5c02b"/>
  </g>
</svg>
