<svg xmlns="http://www.w3.org/2000/svg" width="306.282" height="327.001" viewBox="0 0 306.282 327.001">
  <path id="ticketleft" d="M-5663.74,339H-5841V13h304.962l-5.362,10.795,5.4,10.868-5.4,10.871L-5536,56.4l-5.4,10.873,5.4,10.868-5.4,10.871,5.4,10.87-5.4,10.871,5.4,10.871-5.4,10.864,5.4,10.87-5.4,10.867,5.4,10.868-5.4,10.867,5.4,10.871-5.4,10.87,5.4,10.871-5.4,10.874,5.4,10.871-5.4,10.871,5.4,10.873-5.4,10.874,5.4,10.873-5.4,10.874,5.4,10.871-5.4,10.871,5.4,10.874-5.4,10.878,5.375,10.824Z" transform="translate(5841.5 -12.5)" fill="#890a0a" stroke="rgba(0,0,0,0)" stroke-miterlimit="10" stroke-width="1"/>
</svg>
